<svg class="rich-terminal" viewBox="0 0 1726 1026.0" xmlns="http://www.w3.org/2000/svg">
    <!-- Generated with Rich https://www.textualize.io -->
    <style>

    @font-face {
        font-family: "Fira Code";
        src: local("FiraCode-Regular"),
                url("https://cdnjs.cloudflare.com/ajax/libs/firacode/6.2.0/woff2/FiraCode-Regular.woff2") format("woff2"),
                url("https://cdnjs.cloudflare.com/ajax/libs/firacode/6.2.0/woff/FiraCode-Regular.woff") format("woff");
        font-style: normal;
        font-weight: 400;
    }
    @font-face {
        font-family: "Fira Code";
        src: local("FiraCode-Bold"),
                url("https://cdnjs.cloudflare.com/ajax/libs/firacode/6.2.0/woff2/FiraCode-Bold.woff2") format("woff2"),
                url("https://cdnjs.cloudflare.com/ajax/libs/firacode/6.2.0/woff/FiraCode-Bold.woff") format("woff");
        font-style: bold;
        font-weight: 700;
    }

    .terminal-2458770628-matrix {
        font-family: Fira Code, monospace;
        font-size: 20px;
        line-height: 24.4px;
        font-variant-east-asian: full-width;
    }

    .terminal-2458770628-title {
        font-size: 18px;
        font-weight: bold;
        font-family: arial;
    }

    .terminal-2458770628-r1 { fill: #c5c8c6 }
.terminal-2458770628-r2 { fill: #6366f1;font-weight: bold }
.terminal-2458770628-r3 { fill: #71717a }
.terminal-2458770628-r4 { fill: #6366f1 }
.terminal-2458770628-r5 { fill: #fabf24 }
.terminal-2458770628-r6 { fill: #606068 }
.terminal-2458770628-r7 { fill: #ababac }
.terminal-2458770628-r8 { fill: #34d399 }
.terminal-2458770628-r9 { fill: #ffffff;font-weight: bold }
.terminal-2458770628-r10 { fill: #4d4d54 }
.terminal-2458770628-r11 { fill: #71717a;font-weight: bold }
    </style>

    <defs>
    <clipPath id="terminal-2458770628-clip-terminal">
      <rect x="0" y="0" width="1707.0" height="975.0" />
    </clipPath>
    <clipPath id="terminal-2458770628-line-0">
    <rect x="0" y="1.5" width="1708" height="24.65"/>
            </clipPath>
<clipPath id="terminal-2458770628-line-1">
    <rect x="0" y="25.9" width="1708" height="24.65"/>
            </clipPath>
<clipPath id="terminal-2458770628-line-2">
    <rect x="0" y="50.3" width="1708" height="24.65"/>
            </clipPath>
<clipPath id="terminal-2458770628-line-3">
    <rect x="0" y="74.7" width="1708" height="24.65"/>
            </clipPath>
<clipPath id="terminal-2458770628-line-4">
    <rect x="0" y="99.1" width="1708" height="24.65"/>
            </clipPath>
<clipPath id="terminal-2458770628-line-5">
    <rect x="0" y="123.5" width="1708" height="24.65"/>
            </clipPath>
<clipPath id="terminal-2458770628-line-6">
    <rect x="0" y="147.9" width="1708" height="24.65"/>
            </clipPath>
<clipPath id="terminal-2458770628-line-7">
    <rect x="0" y="172.3" width="1708" height="24.65"/>
            </clipPath>
<clipPath id="terminal-2458770628-line-8">
    <rect x="0" y="196.7" width="1708" height="24.65"/>
            </clipPath>
<clipPath id="terminal-2458770628-line-9">
    <rect x="0" y="221.1" width="1708" height="24.65"/>
            </clipPath>
<clipPath id="terminal-2458770628-line-10">
    <rect x="0" y="245.5" width="1708" height="24.65"/>
            </clipPath>
<clipPath id="terminal-2458770628-line-11">
    <rect x="0" y="269.9" width="1708" height="24.65"/>
            </clipPath>
<clipPath id="terminal-2458770628-line-12">
    <rect x="0" y="294.3" width="1708" height="24.65"/>
            </clipPath>
<clipPath id="terminal-2458770628-line-13">
    <rect x="0" y="318.7" width="1708" height="24.65"/>
            </clipPath>
<clipPath id="terminal-2458770628-line-14">
    <rect x="0" y="343.1" width="1708" height="24.65"/>
            </clipPath>
<clipPath id="terminal-2458770628-line-15">
    <rect x="0" y="367.5" width="1708" height="24.65"/>
            </clipPath>
<clipPath id="terminal-2458770628-line-16">
    <rect x="0" y="391.9" width="1708" height="24.65"/>
            </clipPath>
<clipPath id="terminal-2458770628-line-17">
    <rect x="0" y="416.3" width="1708" height="24.65"/>
            </clipPath>
<clipPath id="terminal-2458770628-line-18">
    <rect x="0" y="440.7" width="1708" height="24.65"/>
            </clipPath>
<clipPath id="terminal-2458770628-line-19">
    <rect x="0" y="465.1" width="1708" height="24.65"/>
            </clipPath>
<clipPath id="terminal-2458770628-line-20">
    <rect x="0" y="489.5" width="1708" height="24.65"/>
            </clipPath>
<clipPath id="terminal-2458770628-line-21">
    <rect x="0" y="513.9" width="1708" height="24.65"/>
            </clipPath>
<clipPath id="terminal-2458770628-line-22">
    <rect x="0" y="538.3" width="1708" height="24.65"/>
            </clipPath>
<clipPath id="terminal-2458770628-line-23">
    <rect x="0" y="562.7" width="1708" height="24.65"/>
            </clipPath>
<clipPath id="terminal-2458770628-line-24">
    <rect x="0" y="587.1" width="1708" height="24.65"/>
            </clipPath>
<clipPath id="terminal-2458770628-line-25">
    <rect x="0" y="611.5" width="1708" height="24.65"/>
            </clipPath>
<clipPath id="terminal-2458770628-line-26">
    <rect x="0" y="635.9" width="1708" height="24.65"/>
            </clipPath>
<clipPath id="terminal-2458770628-line-27">
    <rect x="0" y="660.3" width="1708" height="24.65"/>
            </clipPath>
<clipPath id="terminal-2458770628-line-28">
    <rect x="0" y="684.7" width="1708" height="24.65"/>
            </clipPath>
<clipPath id="terminal-2458770628-line-29">
    <rect x="0" y="709.1" width="1708" height="24.65"/>
            </clipPath>
<clipPath id="terminal-2458770628-line-30">
    <rect x="0" y="733.5" width="1708" height="24.65"/>
            </clipPath>
<clipPath id="terminal-2458770628-line-31">
    <rect x="0" y="757.9" width="1708" height="24.65"/>
            </clipPath>
<clipPath id="terminal-2458770628-line-32">
    <rect x="0" y="782.3" width="1708" height="24.65"/>
            </clipPath>
<clipPath id="terminal-2458770628-line-33">
    <rect x="0" y="806.7" width="1708" height="24.65"/>
            </clipPath>
<clipPath id="terminal-2458770628-line-34">
    <rect x="0" y="831.1" width="1708" height="24.65"/>
            </clipPath>
<clipPath id="terminal-2458770628-line-35">
    <rect x="0" y="855.5" width="1708" height="24.65"/>
            </clipPath>
<clipPath id="terminal-2458770628-line-36">
    <rect x="0" y="879.9" width="1708" height="24.65"/>
            </clipPath>
<clipPath id="terminal-2458770628-line-37">
    <rect x="0" y="904.3" width="1708" height="24.65"/>
            </clipPath>
<clipPath id="terminal-2458770628-line-38">
    <rect x="0" y="928.7" width="1708" height="24.65"/>
            </clipPath>
    </defs>

    <rect fill="#292929" stroke="rgba(255,255,255,0.35)" stroke-width="1" x="1" y="1" width="1724" height="1024" rx="8"/><text class="terminal-2458770628-title" fill="#c5c8c6" text-anchor="middle" x="862" y="27">visvoai</text>
            <g transform="translate(26,22)">
            <circle cx="0" cy="0" r="7" fill="#ff5f57"/>
            <circle cx="22" cy="0" r="7" fill="#febc2e"/>
            <circle cx="44" cy="0" r="7" fill="#28c840"/>
            </g>
        
    <g transform="translate(9, 41)" clip-path="url(#terminal-2458770628-clip-terminal)">
    <rect fill="#09090b" x="0" y="1.5" width="122" height="24.65" shape-rendering="crispEdges"/><rect fill="#09090b" x="122" y="1.5" width="1464" height="24.65" shape-rendering="crispEdges"/><rect fill="#09090b" x="1586" y="1.5" width="122" height="24.65" shape-rendering="crispEdges"/><rect fill="#09090b" x="0" y="25.9" width="122" height="24.65" shape-rendering="crispEdges"/><rect fill="#09090b" x="122" y="25.9" width="48.8" height="24.65" shape-rendering="crispEdges"/><rect fill="#09090b" x="170.8" y="25.9" width="12.2" height="24.65" shape-rendering="crispEdges"/><rect fill="#09090b" x="183" y="25.9" width="634.4" height="24.65" shape-rendering="crispEdges"/><rect fill="#09090b" x="817.4" y="25.9" width="707.6" height="24.65" shape-rendering="crispEdges"/><rect fill="#09090b" x="1525" y="25.9" width="12.2" height="24.65" shape-rendering="crispEdges"/><rect fill="#09090b" x="1537.2" y="25.9" width="48.8" height="24.65" shape-rendering="crispEdges"/><rect fill="#09090b" x="1586" y="25.9" width="122" height="24.65" shape-rendering="crispEdges"/><rect fill="#09090b" x="0" y="50.3" width="122" height="24.65" shape-rendering="crispEdges"/><rect fill="#09090b" x="122" y="50.3" width="48.8" height="24.65" shape-rendering="crispEdges"/><rect fill="#09090b" x="170.8" y="50.3" width="12.2" height="24.65" shape-rendering="crispEdges"/><rect fill="#09090b" x="183" y="50.3" width="768.6" height="24.65" shape-rendering="crispEdges"/><rect fill="#09090b" x="951.6" y="50.3" width="573.4" height="24.65" shape-rendering="crispEdges"/><rect fill="#09090b" x="1525" y="50.3" width="12.2" height="24.65" shape-rendering="crispEdges"/><rect fill="#09090b" x="1537.2" y="50.3" width="48.8" height="24.65" shape-rendering="crispEdges"/><rect fill="#09090b" x="1586" y="50.3" width="122" height="24.65" shape-rendering="crispEdges"/><rect fill="#09090b" x="0" y="74.7" width="122" height="24.65" shape-rendering="crispEdges"/><rect fill="#09090b" x="122" y="74.7" width="48.8" height="24.65" shape-rendering="crispEdges"/><rect fill="#09090b" x="170.8" y="74.7" width="1366.4" height="24.65" shape-rendering="crispEdges"/><rect fill="#09090b" x="1537.2" y="74.7" width="48.8" height="24.65" shape-rendering="crispEdges"/><rect fill="#09090b" x="1586" y="74.7" width="122" height="24.65" shape-rendering="crispEdges"/><rect fill="#09090b" x="0" y="99.1" width="122" height="24.65" shape-rendering="crispEdges"/><rect fill="#09090b" x="122" y="99.1" width="48.8" height="24.65" shape-rendering="crispEdges"/><rect fill="#3f3f46" x="170.8" y="99.1" width="12.2" height="24.65" shape-rendering="crispEdges"/><rect fill="#3f3f46" x="183" y="99.1" width="36.6" height="24.65" shape-rendering="crispEdges"/><rect fill="#3f3f46" x="219.6" y="99.1" width="24.4" height="24.65" shape-rendering="crispEdges"/><rect fill="#3f3f46" x="244" y="99.1" width="170.8" height="24.65" shape-rendering="crispEdges"/><rect fill="#3f3f46" x="414.8" y="99.1" width="207.4" height="24.65" shape-rendering="crispEdges"/><rect fill="#3f3f46" x="622.2" y="99.1" width="122" height="24.65" shape-rendering="crispEdges"/><rect fill="#3f3f46" x="744.2" y="99.1" width="780.8" height="24.65" shape-rendering="crispEdges"/><rect fill="#3f3f46" x="1525" y="99.1" width="12.2" height="24.65" shape-rendering="crispEdges"/><rect fill="#09090b" x="1537.2" y="99.1" width="48.8" height="24.65" shape-rendering="crispEdges"/><rect fill="#09090b" x="1586" y="99.1" width="122" height="24.65" shape-rendering="crispEdges"/><rect fill="#09090b" x="0" y="123.5" width="122" height="24.65" shape-rendering="crispEdges"/><rect fill="#09090b" x="122" y="123.5" width="48.8" height="24.65" shape-rendering="crispEdges"/><rect fill="#3f3f46" x="170.8" y="123.5" width="12.2" height="24.65" shape-rendering="crispEdges"/><rect fill="#3f3f46" x="183" y="123.5" width="61" height="24.65" shape-rendering="crispEdges"/><rect fill="#3f3f46" x="244" y="123.5" width="1134.6" height="24.65" shape-rendering="crispEdges"/><rect fill="#3f3f46" x="1378.6" y="123.5" width="146.4" height="24.65" shape-rendering="crispEdges"/><rect fill="#3f3f46" x="1525" y="123.5" width="12.2" height="24.65" shape-rendering="crispEdges"/><rect fill="#09090b" x="1537.2" y="123.5" width="48.8" height="24.65" shape-rendering="crispEdges"/><rect fill="#09090b" x="1586" y="123.5" width="122" height="24.65" shape-rendering="crispEdges"/><rect fill="#09090b" x="0" y="147.9" width="122" height="24.65" shape-rendering="crispEdges"/><rect fill="#09090b" x="122" y="147.9" width="48.8" height="24.65" shape-rendering="crispEdges"/><rect fill="#09090b" x="170.8" y="147.9" width="1366.4" height="24.65" shape-rendering="crispEdges"/><rect fill="#09090b" x="1537.2" y="147.9" width="48.8" height="24.65" shape-rendering="crispEdges"/><rect fill="#09090b" x="1586" y="147.9" width="122" height="24.65" shape-rendering="crispEdges"/><rect fill="#09090b" x="0" y="172.3" width="122" height="24.65" shape-rendering="crispEdges"/><rect fill="#09090b" x="122" y="172.3" width="48.8" height="24.65" shape-rendering="crispEdges"/><rect fill="#09090b" x="170.8" y="172.3" width="12.2" height="24.65" shape-rendering="crispEdges"/><rect fill="#09090b" x="183" y="172.3" width="36.6" height="24.65" shape-rendering="crispEdges"/><rect fill="#09090b" x="219.6" y="172.3" width="24.4" height="24.65" shape-rendering="crispEdges"/><rect fill="#09090b" x="244" y="172.3" width="109.8" height="24.65" shape-rendering="crispEdges"/><rect fill="#09090b" x="353.8" y="172.3" width="109.8" height="24.65" shape-rendering="crispEdges"/><rect fill="#09090b" x="463.6" y="172.3" width="1061.4" height="24.65" shape-rendering="crispEdges"/><rect fill="#09090b" x="1525" y="172.3" width="12.2" height="24.65" shape-rendering="crispEdges"/><rect fill="#09090b" x="1537.2" y="172.3" width="48.8" height="24.65" shape-rendering="crispEdges"/><rect fill="#09090b" x="1586" y="172.3" width="122" height="24.65" shape-rendering="crispEdges"/><rect fill="#09090b" x="0" y="196.7" width="122" height="24.65" shape-rendering="crispEdges"/><rect fill="#09090b" x="122" y="196.7" width="48.8" height="24.65" shape-rendering="crispEdges"/><rect fill="#09090b" x="170.8" y="196.7" width="12.2" height="24.65" shape-rendering="crispEdges"/><rect fill="#09090b" x="183" y="196.7" width="61" height="24.65" shape-rendering="crispEdges"/><rect fill="#09090b" x="244" y="196.7" width="597.8" height="24.65" shape-rendering="crispEdges"/><rect fill="#09090b" x="841.8" y="196.7" width="683.2" height="24.65" shape-rendering="crispEdges"/><rect fill="#09090b" x="1525" y="196.7" width="12.2" height="24.65" shape-rendering="crispEdges"/><rect fill="#09090b" x="1537.2" y="196.7" width="48.8" height="24.65" shape-rendering="crispEdges"/><rect fill="#09090b" x="1586" y="196.7" width="122" height="24.65" shape-rendering="crispEdges"/><rect fill="#09090b" x="0" y="221.1" width="122" height="24.65" shape-rendering="crispEdges"/><rect fill="#09090b" x="122" y="221.1" width="48.8" height="24.65" shape-rendering="crispEdges"/><rect fill="#09090b" x="170.8" y="221.1" width="1366.4" height="24.65" shape-rendering="crispEdges"/><rect fill="#09090b" x="1537.2" y="221.1" width="48.8" height="24.65" shape-rendering="crispEdges"/><rect fill="#09090b" x="1586" y="221.1" width="122" height="24.65" shape-rendering="crispEdges"/><rect fill="#09090b" x="0" y="245.5" width="122" height="24.65" shape-rendering="crispEdges"/><rect fill="#09090b" x="122" y="245.5" width="48.8" height="24.65" shape-rendering="crispEdges"/><rect fill="#09090b" x="170.8" y="245.5" width="12.2" height="24.65" shape-rendering="crispEdges"/><rect fill="#09090b" x="183" y="245.5" width="36.6" height="24.65" shape-rendering="crispEdges"/><rect fill="#09090b" x="219.6" y="245.5" width="24.4" height="24.65" shape-rendering="crispEdges"/><rect fill="#09090b" x="244" y="245.5" width="158.6" height="24.65" shape-rendering="crispEdges"/><rect fill="#09090b" x="402.6" y="245.5" width="109.8" height="24.65" shape-rendering="crispEdges"/><rect fill="#09090b" x="512.4" y="245.5" width="1012.6" height="24.65" shape-rendering="crispEdges"/><rect fill="#09090b" x="1525" y="245.5" width="12.2" height="24.65" shape-rendering="crispEdges"/><rect fill="#09090b" x="1537.2" y="245.5" width="48.8" height="24.65" shape-rendering="crispEdges"/><rect fill="#09090b" x="1586" y="245.5" width="122" height="24.65" shape-rendering="crispEdges"/><rect fill="#09090b" x="0" y="269.9" width="122" height="24.65" shape-rendering="crispEdges"/><rect fill="#09090b" x="122" y="269.9" width="48.8" height="24.65" shape-rendering="crispEdges"/><rect fill="#09090b" x="170.8" y="269.9" width="12.2" height="24.65" shape-rendering="crispEdges"/><rect fill="#09090b" x="183" y="269.9" width="61" height="24.65" shape-rendering="crispEdges"/><rect fill="#09090b" x="244" y="269.9" width="439.2" height="24.65" shape-rendering="crispEdges"/><rect fill="#09090b" x="683.2" y="269.9" width="841.8" height="24.65" shape-rendering="crispEdges"/><rect fill="#09090b" x="1525" y="269.9" width="12.2" height="24.65" shape-rendering="crispEdges"/><rect fill="#09090b" x="1537.2" y="269.9" width="48.8" height="24.65" shape-rendering="crispEdges"/><rect fill="#09090b" x="1586" y="269.9" width="122" height="24.65" shape-rendering="crispEdges"/><rect fill="#09090b" x="0" y="294.3" width="122" height="24.65" shape-rendering="crispEdges"/><rect fill="#09090b" x="122" y="294.3" width="48.8" height="24.65" shape-rendering="crispEdges"/><rect fill="#09090b" x="170.8" y="294.3" width="1366.4" height="24.65" shape-rendering="crispEdges"/><rect fill="#09090b" x="1537.2" y="294.3" width="48.8" height="24.65" shape-rendering="crispEdges"/><rect fill="#09090b" x="1586" y="294.3" width="122" height="24.65" shape-rendering="crispEdges"/><rect fill="#09090b" x="0" y="318.7" width="122" height="24.65" shape-rendering="crispEdges"/><rect fill="#09090b" x="122" y="318.7" width="48.8" height="24.65" shape-rendering="crispEdges"/><rect fill="#09090b" x="170.8" y="318.7" width="1366.4" height="24.65" shape-rendering="crispEdges"/><rect fill="#09090b" x="1537.2" y="318.7" width="48.8" height="24.65" shape-rendering="crispEdges"/><rect fill="#09090b" x="1586" y="318.7" width="122" height="24.65" shape-rendering="crispEdges"/><rect fill="#09090b" x="0" y="343.1" width="122" height="24.65" shape-rendering="crispEdges"/><rect fill="#09090b" x="122" y="343.1" width="48.8" height="24.65" shape-rendering="crispEdges"/><rect fill="#09090b" x="170.8" y="343.1" width="1366.4" height="24.65" shape-rendering="crispEdges"/><rect fill="#09090b" x="1537.2" y="343.1" width="48.8" height="24.65" shape-rendering="crispEdges"/><rect fill="#09090b" x="1586" y="343.1" width="122" height="24.65" shape-rendering="crispEdges"/><rect fill="#09090b" x="0" y="367.5" width="122" height="24.65" shape-rendering="crispEdges"/><rect fill="#09090b" x="122" y="367.5" width="48.8" height="24.65" shape-rendering="crispEdges"/><rect fill="#09090b" x="170.8" y="367.5" width="1366.4" height="24.65" shape-rendering="crispEdges"/><rect fill="#09090b" x="1537.2" y="367.5" width="48.8" height="24.65" shape-rendering="crispEdges"/><rect fill="#09090b" x="1586" y="367.5" width="122" height="24.65" shape-rendering="crispEdges"/><rect fill="#09090b" x="0" y="391.9" width="122" height="24.65" shape-rendering="crispEdges"/><rect fill="#09090b" x="122" y="391.9" width="48.8" height="24.65" shape-rendering="crispEdges"/><rect fill="#09090b" x="170.8" y="391.9" width="1366.4" height="24.65" shape-rendering="crispEdges"/><rect fill="#09090b" x="1537.2" y="391.9" width="48.8" height="24.65" shape-rendering="crispEdges"/><rect fill="#09090b" x="1586" y="391.9" width="122" height="24.65" shape-rendering="crispEdges"/><rect fill="#09090b" x="0" y="416.3" width="122" height="24.65" shape-rendering="crispEdges"/><rect fill="#09090b" x="122" y="416.3" width="48.8" height="24.65" shape-rendering="crispEdges"/><rect fill="#09090b" x="170.8" y="416.3" width="1366.4" height="24.65" shape-rendering="crispEdges"/><rect fill="#09090b" x="1537.2" y="416.3" width="48.8" height="24.65" shape-rendering="crispEdges"/><rect fill="#09090b" x="1586" y="416.3" width="122" height="24.65" shape-rendering="crispEdges"/><rect fill="#09090b" x="0" y="440.7" width="122" height="24.65" shape-rendering="crispEdges"/><rect fill="#09090b" x="122" y="440.7" width="48.8" height="24.65" shape-rendering="crispEdges"/><rect fill="#09090b" x="170.8" y="440.7" width="1366.4" height="24.65" shape-rendering="crispEdges"/><rect fill="#09090b" x="1537.2" y="440.7" width="48.8" height="24.65" shape-rendering="crispEdges"/><rect fill="#09090b" x="1586" y="440.7" width="122" height="24.65" shape-rendering="crispEdges"/><rect fill="#09090b" x="0" y="465.1" width="122" height="24.65" shape-rendering="crispEdges"/><rect fill="#09090b" x="122" y="465.1" width="48.8" height="24.65" shape-rendering="crispEdges"/><rect fill="#09090b" x="170.8" y="465.1" width="1366.4" height="24.65" shape-rendering="crispEdges"/><rect fill="#09090b" x="1537.2" y="465.1" width="48.8" height="24.65" shape-rendering="crispEdges"/><rect fill="#09090b" x="1586" y="465.1" width="122" height="24.65" shape-rendering="crispEdges"/><rect fill="#09090b" x="0" y="489.5" width="122" height="24.65" shape-rendering="crispEdges"/><rect fill="#09090b" x="122" y="489.5" width="48.8" height="24.65" shape-rendering="crispEdges"/><rect fill="#09090b" x="170.8" y="489.5" width="1366.4" height="24.65" shape-rendering="crispEdges"/><rect fill="#09090b" x="1537.2" y="489.5" width="48.8" height="24.65" shape-rendering="crispEdges"/><rect fill="#09090b" x="1586" y="489.5" width="122" height="24.65" shape-rendering="crispEdges"/><rect fill="#09090b" x="0" y="513.9" width="122" height="24.65" shape-rendering="crispEdges"/><rect fill="#09090b" x="122" y="513.9" width="48.8" height="24.65" shape-rendering="crispEdges"/><rect fill="#09090b" x="170.8" y="513.9" width="1366.4" height="24.65" shape-rendering="crispEdges"/><rect fill="#09090b" x="1537.2" y="513.9" width="48.8" height="24.65" shape-rendering="crispEdges"/><rect fill="#09090b" x="1586" y="513.9" width="122" height="24.65" shape-rendering="crispEdges"/><rect fill="#09090b" x="0" y="538.3" width="122" height="24.65" shape-rendering="crispEdges"/><rect fill="#09090b" x="122" y="538.3" width="48.8" height="24.65" shape-rendering="crispEdges"/><rect fill="#09090b" x="170.8" y="538.3" width="1366.4" height="24.65" shape-rendering="crispEdges"/><rect fill="#09090b" x="1537.2" y="538.3" width="48.8" height="24.65" shape-rendering="crispEdges"/><rect fill="#09090b" x="1586" y="538.3" width="122" height="24.65" shape-rendering="crispEdges"/><rect fill="#09090b" x="0" y="562.7" width="122" height="24.65" shape-rendering="crispEdges"/><rect fill="#09090b" x="122" y="562.7" width="48.8" height="24.65" shape-rendering="crispEdges"/><rect fill="#09090b" x="170.8" y="562.7" width="1366.4" height="24.65" shape-rendering="crispEdges"/><rect fill="#09090b" x="1537.2" y="562.7" width="48.8" height="24.65" shape-rendering="crispEdges"/><rect fill="#09090b" x="1586" y="562.7" width="122" height="24.65" shape-rendering="crispEdges"/><rect fill="#09090b" x="0" y="587.1" width="122" height="24.65" shape-rendering="crispEdges"/><rect fill="#09090b" x="122" y="587.1" width="48.8" height="24.65" shape-rendering="crispEdges"/><rect fill="#09090b" x="170.8" y="587.1" width="1366.4" height="24.65" shape-rendering="crispEdges"/><rect fill="#09090b" x="1537.2" y="587.1" width="48.8" height="24.65" shape-rendering="crispEdges"/><rect fill="#09090b" x="1586" y="587.1" width="122" height="24.65" shape-rendering="crispEdges"/><rect fill="#09090b" x="0" y="611.5" width="122" height="24.65" shape-rendering="crispEdges"/><rect fill="#09090b" x="122" y="611.5" width="48.8" height="24.65" shape-rendering="crispEdges"/><rect fill="#09090b" x="170.8" y="611.5" width="1366.4" height="24.65" shape-rendering="crispEdges"/><rect fill="#09090b" x="1537.2" y="611.5" width="48.8" height="24.65" shape-rendering="crispEdges"/><rect fill="#09090b" x="1586" y="611.5" width="122" height="24.65" shape-rendering="crispEdges"/><rect fill="#09090b" x="0" y="635.9" width="122" height="24.65" shape-rendering="crispEdges"/><rect fill="#09090b" x="122" y="635.9" width="48.8" height="24.65" shape-rendering="crispEdges"/><rect fill="#09090b" x="170.8" y="635.9" width="1366.4" height="24.65" shape-rendering="crispEdges"/><rect fill="#09090b" x="1537.2" y="635.9" width="48.8" height="24.65" shape-rendering="crispEdges"/><rect fill="#09090b" x="1586" y="635.9" width="122" height="24.65" shape-rendering="crispEdges"/><rect fill="#09090b" x="0" y="660.3" width="122" height="24.65" shape-rendering="crispEdges"/><rect fill="#09090b" x="122" y="660.3" width="48.8" height="24.65" shape-rendering="crispEdges"/><rect fill="#09090b" x="170.8" y="660.3" width="1366.4" height="24.65" shape-rendering="crispEdges"/><rect fill="#09090b" x="1537.2" y="660.3" width="48.8" height="24.65" shape-rendering="crispEdges"/><rect fill="#09090b" x="1586" y="660.3" width="122" height="24.65" shape-rendering="crispEdges"/><rect fill="#09090b" x="0" y="684.7" width="122" height="24.65" shape-rendering="crispEdges"/><rect fill="#09090b" x="122" y="684.7" width="48.8" height="24.65" shape-rendering="crispEdges"/><rect fill="#09090b" x="170.8" y="684.7" width="1366.4" height="24.65" shape-rendering="crispEdges"/><rect fill="#09090b" x="1537.2" y="684.7" width="48.8" height="24.65" shape-rendering="crispEdges"/><rect fill="#09090b" x="1586" y="684.7" width="122" height="24.65" shape-rendering="crispEdges"/><rect fill="#09090b" x="0" y="709.1" width="122" height="24.65" shape-rendering="crispEdges"/><rect fill="#09090b" x="122" y="709.1" width="48.8" height="24.65" shape-rendering="crispEdges"/><rect fill="#09090b" x="170.8" y="709.1" width="1366.4" height="24.65" shape-rendering="crispEdges"/><rect fill="#09090b" x="1537.2" y="709.1" width="48.8" height="24.65" shape-rendering="crispEdges"/><rect fill="#09090b" x="1586" y="709.1" width="122" height="24.65" shape-rendering="crispEdges"/><rect fill="#09090b" x="0" y="733.5" width="122" height="24.65" shape-rendering="crispEdges"/><rect fill="#09090b" x="122" y="733.5" width="48.8" height="24.65" shape-rendering="crispEdges"/><rect fill="#09090b" x="170.8" y="733.5" width="1366.4" height="24.65" shape-rendering="crispEdges"/><rect fill="#09090b" x="1537.2" y="733.5" width="48.8" height="24.65" shape-rendering="crispEdges"/><rect fill="#09090b" x="1586" y="733.5" width="122" height="24.65" shape-rendering="crispEdges"/><rect fill="#09090b" x="0" y="757.9" width="122" height="24.65" shape-rendering="crispEdges"/><rect fill="#09090b" x="122" y="757.9" width="48.8" height="24.65" shape-rendering="crispEdges"/><rect fill="#09090b" x="170.8" y="757.9" width="1366.4" height="24.65" shape-rendering="crispEdges"/><rect fill="#09090b" x="1537.2" y="757.9" width="48.8" height="24.65" shape-rendering="crispEdges"/><rect fill="#09090b" x="1586" y="757.9" width="122" height="24.65" shape-rendering="crispEdges"/><rect fill="#09090b" x="0" y="782.3" width="122" height="24.65" shape-rendering="crispEdges"/><rect fill="#09090b" x="122" y="782.3" width="48.8" height="24.65" shape-rendering="crispEdges"/><rect fill="#09090b" x="170.8" y="782.3" width="1366.4" height="24.65" shape-rendering="crispEdges"/><rect fill="#09090b" x="1537.2" y="782.3" width="48.8" height="24.65" shape-rendering="crispEdges"/><rect fill="#09090b" x="1586" y="782.3" width="122" height="24.65" shape-rendering="crispEdges"/><rect fill="#09090b" x="0" y="806.7" width="122" height="24.65" shape-rendering="crispEdges"/><rect fill="#09090b" x="122" y="806.7" width="48.8" height="24.65" shape-rendering="crispEdges"/><rect fill="#09090b" x="170.8" y="806.7" width="1366.4" height="24.65" shape-rendering="crispEdges"/><rect fill="#09090b" x="1537.2" y="806.7" width="48.8" height="24.65" shape-rendering="crispEdges"/><rect fill="#09090b" x="1586" y="806.7" width="122" height="24.65" shape-rendering="crispEdges"/><rect fill="#09090b" x="0" y="831.1" width="122" height="24.65" shape-rendering="crispEdges"/><rect fill="#09090b" x="122" y="831.1" width="48.8" height="24.65" shape-rendering="crispEdges"/><rect fill="#09090b" x="170.8" y="831.1" width="1366.4" height="24.65" shape-rendering="crispEdges"/><rect fill="#09090b" x="1537.2" y="831.1" width="48.8" height="24.65" shape-rendering="crispEdges"/><rect fill="#09090b" x="1586" y="831.1" width="122" height="24.65" shape-rendering="crispEdges"/><rect fill="#09090b" x="0" y="855.5" width="122" height="24.65" shape-rendering="crispEdges"/><rect fill="#09090b" x="122" y="855.5" width="48.8" height="24.65" shape-rendering="crispEdges"/><rect fill="#09090b" x="170.8" y="855.5" width="12.2" height="24.65" shape-rendering="crispEdges"/><rect fill="#09090b" x="183" y="855.5" width="134.2" height="24.65" shape-rendering="crispEdges"/><rect fill="#09090b" x="317.2" y="855.5" width="341.6" height="24.65" shape-rendering="crispEdges"/><rect fill="#09090b" x="658.8" y="855.5" width="634.4" height="24.65" shape-rendering="crispEdges"/><rect fill="#09090b" x="1293.2" y="855.5" width="183" height="24.65" shape-rendering="crispEdges"/><rect fill="#09090b" x="1476.2" y="855.5" width="48.8" height="24.65" shape-rendering="crispEdges"/><rect fill="#09090b" x="1525" y="855.5" width="12.2" height="24.65" shape-rendering="crispEdges"/><rect fill="#09090b" x="1537.2" y="855.5" width="48.8" height="24.65" shape-rendering="crispEdges"/><rect fill="#09090b" x="1586" y="855.5" width="122" height="24.65" shape-rendering="crispEdges"/><rect fill="#09090b" x="0" y="879.9" width="122" height="24.65" shape-rendering="crispEdges"/><rect fill="#09090b" x="122" y="879.9" width="48.8" height="24.65" shape-rendering="crispEdges"/><rect fill="#09090b" x="170.8" y="879.9" width="12.2" height="24.65" shape-rendering="crispEdges"/><rect fill="#09090b" x="183" y="879.9" width="244" height="24.65" shape-rendering="crispEdges"/><rect fill="#09090b" x="427" y="879.9" width="1098" height="24.65" shape-rendering="crispEdges"/><rect fill="#09090b" x="1525" y="879.9" width="12.2" height="24.65" shape-rendering="crispEdges"/><rect fill="#09090b" x="1537.2" y="879.9" width="48.8" height="24.65" shape-rendering="crispEdges"/><rect fill="#09090b" x="1586" y="879.9" width="122" height="24.65" shape-rendering="crispEdges"/><rect fill="#09090b" x="0" y="904.3" width="122" height="24.65" shape-rendering="crispEdges"/><rect fill="#09090b" x="122" y="904.3" width="48.8" height="24.65" shape-rendering="crispEdges"/><rect fill="#09090b" x="170.8" y="904.3" width="1366.4" height="24.65" shape-rendering="crispEdges"/><rect fill="#09090b" x="1537.2" y="904.3" width="48.8" height="24.65" shape-rendering="crispEdges"/><rect fill="#09090b" x="1586" y="904.3" width="122" height="24.65" shape-rendering="crispEdges"/><rect fill="#09090b" x="0" y="928.7" width="122" height="24.65" shape-rendering="crispEdges"/><rect fill="#09090b" x="122" y="928.7" width="48.8" height="24.65" shape-rendering="crispEdges"/><rect fill="#09090b" x="170.8" y="928.7" width="12.2" height="24.65" shape-rendering="crispEdges"/><rect fill="#09090b" x="183" y="928.7" width="36.6" height="24.65" shape-rendering="crispEdges"/><rect fill="#09090b" x="219.6" y="928.7" width="195.2" height="24.65" shape-rendering="crispEdges"/><rect fill="#09090b" x="414.8" y="928.7" width="134.2" height="24.65" shape-rendering="crispEdges"/><rect fill="#09090b" x="549" y="928.7" width="451.4" height="24.65" shape-rendering="crispEdges"/><rect fill="#09090b" x="1000.4" y="928.7" width="36.6" height="24.65" shape-rendering="crispEdges"/><rect fill="#09090b" x="1037" y="928.7" width="170.8" height="24.65" shape-rendering="crispEdges"/><rect fill="#09090b" x="1207.8" y="928.7" width="317.2" height="24.65" shape-rendering="crispEdges"/><rect fill="#09090b" x="1525" y="928.7" width="12.2" height="24.65" shape-rendering="crispEdges"/><rect fill="#09090b" x="1537.2" y="928.7" width="48.8" height="24.65" shape-rendering="crispEdges"/><rect fill="#09090b" x="1586" y="928.7" width="122" height="24.65" shape-rendering="crispEdges"/><rect fill="#09090b" x="0" y="953.1" width="122" height="24.65" shape-rendering="crispEdges"/><rect fill="#09090b" x="122" y="953.1" width="1464" height="24.65" shape-rendering="crispEdges"/><rect fill="#09090b" x="1586" y="953.1" width="122" height="24.65" shape-rendering="crispEdges"/>
    <g class="terminal-2458770628-matrix">
    <text class="terminal-2458770628-r1" x="1708" y="20" textLength="12.2" clip-path="url(#terminal-2458770628-line-0)">
</text><text class="terminal-2458770628-r2" x="183" y="44.4" textLength="634.4" clip-path="url(#terminal-2458770628-line-1)">Skills&#160;—&#160;reusable&#160;workflows&#160;the&#160;AI&#160;follows&#160;on&#160;demand</text><text class="terminal-2458770628-r1" x="1708" y="44.4" textLength="12.2" clip-path="url(#terminal-2458770628-line-1)">
</text><text class="terminal-2458770628-r3" x="183" y="68.8" textLength="768.6" clip-path="url(#terminal-2458770628-line-2)">3&#160;skills&#160;the&#160;AI&#160;can&#160;load&#160;on&#160;demand&#160;&#160;·&#160;&#160;1&#160;awaiting&#160;your&#160;approval</text><text class="terminal-2458770628-r1" x="1708" y="68.8" textLength="12.2" clip-path="url(#terminal-2458770628-line-2)">
</text><text class="terminal-2458770628-r1" x="1708" y="93.2" textLength="12.2" clip-path="url(#terminal-2458770628-line-3)">
</text><text class="terminal-2458770628-r4" x="183" y="117.6" textLength="36.6" clip-path="url(#terminal-2458770628-line-4)">&#160;❯&#160;</text><text class="terminal-2458770628-r5" x="219.6" y="117.6" textLength="24.4" clip-path="url(#terminal-2458770628-line-4)">!&#160;</text><text class="terminal-2458770628-r2" x="244" y="117.6" textLength="170.8" clip-path="url(#terminal-2458770628-line-4)">deploy-runbook</text><text class="terminal-2458770628-r5" x="414.8" y="117.6" textLength="207.4" clip-path="url(#terminal-2458770628-line-4)">&#160;&#160;&#160;needs&#160;approval</text><text class="terminal-2458770628-r6" x="622.2" y="117.6" textLength="122" clip-path="url(#terminal-2458770628-line-4)">&#160;·&#160;project</text><text class="terminal-2458770628-r1" x="1708" y="117.6" textLength="12.2" clip-path="url(#terminal-2458770628-line-4)">
</text><text class="terminal-2458770628-r5" x="244" y="142" textLength="1134.6" clip-path="url(#terminal-2458770628-line-5)">this&#160;project&#x27;s&#160;files&#160;define&#160;it&#160;—&#160;press&#160;enter&#160;to&#160;trust&#160;(one-time,&#160;remembered&#160;outside&#160;the&#160;repo)</text><text class="terminal-2458770628-r1" x="1708" y="142" textLength="12.2" clip-path="url(#terminal-2458770628-line-5)">
</text><text class="terminal-2458770628-r1" x="1708" y="166.4" textLength="12.2" clip-path="url(#terminal-2458770628-line-6)">
</text><text class="terminal-2458770628-r8" x="219.6" y="190.8" textLength="24.4" clip-path="url(#terminal-2458770628-line-7)">●&#160;</text><text class="terminal-2458770628-r9" x="244" y="190.8" textLength="109.8" clip-path="url(#terminal-2458770628-line-7)">pr-review</text><text class="terminal-2458770628-r10" x="353.8" y="190.8" textLength="109.8" clip-path="url(#terminal-2458770628-line-7)">&#160;·&#160;global</text><text class="terminal-2458770628-r1" x="1708" y="190.8" textLength="12.2" clip-path="url(#terminal-2458770628-line-7)">
</text><text class="terminal-2458770628-r10" x="244" y="215.2" textLength="597.8" clip-path="url(#terminal-2458770628-line-8)">Review&#160;a&#160;PR&#160;with&#160;house&#160;rules,&#160;sized&#160;to&#160;the&#160;change</text><text class="terminal-2458770628-r1" x="1708" y="215.2" textLength="12.2" clip-path="url(#terminal-2458770628-line-8)">
</text><text class="terminal-2458770628-r1" x="1708" y="239.6" textLength="12.2" clip-path="url(#terminal-2458770628-line-9)">
</text><text class="terminal-2458770628-r8" x="219.6" y="264" textLength="24.4" clip-path="url(#terminal-2458770628-line-10)">●&#160;</text><text class="terminal-2458770628-r9" x="244" y="264" textLength="158.6" clip-path="url(#terminal-2458770628-line-10)">release-notes</text><text class="terminal-2458770628-r10" x="402.6" y="264" textLength="109.8" clip-path="url(#terminal-2458770628-line-10)">&#160;·&#160;global</text><text class="terminal-2458770628-r1" x="1708" y="264" textLength="12.2" clip-path="url(#terminal-2458770628-line-10)">
</text><text class="terminal-2458770628-r10" x="244" y="288.4" textLength="439.2" clip-path="url(#terminal-2458770628-line-11)">Draft&#160;release&#160;notes&#160;from&#160;the&#160;git&#160;log</text><text class="terminal-2458770628-r1" x="1708" y="288.4" textLength="12.2" clip-path="url(#terminal-2458770628-line-11)">
</text><text class="terminal-2458770628-r1" x="1708" y="312.8" textLength="12.2" clip-path="url(#terminal-2458770628-line-12)">
</text><text class="terminal-2458770628-r1" x="1708" y="337.2" textLength="12.2" clip-path="url(#terminal-2458770628-line-13)">
</text><text class="terminal-2458770628-r1" x="1708" y="361.6" textLength="12.2" clip-path="url(#terminal-2458770628-line-14)">
</text><text class="terminal-2458770628-r1" x="1708" y="386" textLength="12.2" clip-path="url(#terminal-2458770628-line-15)">
</text><text class="terminal-2458770628-r1" x="1708" y="410.4" textLength="12.2" clip-path="url(#terminal-2458770628-line-16)">
</text><text class="terminal-2458770628-r1" x="1708" y="434.8" textLength="12.2" clip-path="url(#terminal-2458770628-line-17)">
</text><text class="terminal-2458770628-r1" x="1708" y="459.2" textLength="12.2" clip-path="url(#terminal-2458770628-line-18)">
</text><text class="terminal-2458770628-r1" x="1708" y="483.6" textLength="12.2" clip-path="url(#terminal-2458770628-line-19)">
</text><text class="terminal-2458770628-r1" x="1708" y="508" textLength="12.2" clip-path="url(#terminal-2458770628-line-20)">
</text><text class="terminal-2458770628-r1" x="1708" y="532.4" textLength="12.2" clip-path="url(#terminal-2458770628-line-21)">
</text><text class="terminal-2458770628-r1" x="1708" y="556.8" textLength="12.2" clip-path="url(#terminal-2458770628-line-22)">
</text><text class="terminal-2458770628-r1" x="1708" y="581.2" textLength="12.2" clip-path="url(#terminal-2458770628-line-23)">
</text><text class="terminal-2458770628-r1" x="1708" y="605.6" textLength="12.2" clip-path="url(#terminal-2458770628-line-24)">
</text><text class="terminal-2458770628-r1" x="1708" y="630" textLength="12.2" clip-path="url(#terminal-2458770628-line-25)">
</text><text class="terminal-2458770628-r1" x="1708" y="654.4" textLength="12.2" clip-path="url(#terminal-2458770628-line-26)">
</text><text class="terminal-2458770628-r1" x="1708" y="678.8" textLength="12.2" clip-path="url(#terminal-2458770628-line-27)">
</text><text class="terminal-2458770628-r1" x="1708" y="703.2" textLength="12.2" clip-path="url(#terminal-2458770628-line-28)">
</text><text class="terminal-2458770628-r1" x="1708" y="727.6" textLength="12.2" clip-path="url(#terminal-2458770628-line-29)">
</text><text class="terminal-2458770628-r1" x="1708" y="752" textLength="12.2" clip-path="url(#terminal-2458770628-line-30)">
</text><text class="terminal-2458770628-r1" x="1708" y="776.4" textLength="12.2" clip-path="url(#terminal-2458770628-line-31)">
</text><text class="terminal-2458770628-r1" x="1708" y="800.8" textLength="12.2" clip-path="url(#terminal-2458770628-line-32)">
</text><text class="terminal-2458770628-r1" x="1708" y="825.2" textLength="12.2" clip-path="url(#terminal-2458770628-line-33)">
</text><text class="terminal-2458770628-r1" x="1708" y="849.6" textLength="12.2" clip-path="url(#terminal-2458770628-line-34)">
</text><text class="terminal-2458770628-r9" x="183" y="874" textLength="134.2" clip-path="url(#terminal-2458770628-line-35)">Add&#160;more:&#160;&#160;</text><text class="terminal-2458770628-r4" x="317.2" y="874" textLength="341.6" clip-path="url(#terminal-2458770628-line-35)">visvoai&#160;skills&#160;create&#160;&lt;name&gt;</text><text class="terminal-2458770628-r10" x="658.8" y="874" textLength="634.4" clip-path="url(#terminal-2458770628-line-35)">&#160;&#160;·&#160;&#160;drop&#160;a&#160;SKILL.md&#160;under&#160;~/.visvoai/skills/&lt;name&gt;/</text><text class="terminal-2458770628-r10" x="1293.2" y="874" textLength="183" clip-path="url(#terminal-2458770628-line-35)">&#160;&#160;·&#160;&#160;or&#160;ask&#160;the</text><text class="terminal-2458770628-r1" x="1708" y="874" textLength="12.2" clip-path="url(#terminal-2458770628-line-35)">
</text><text class="terminal-2458770628-r10" x="183" y="898.4" textLength="244" clip-path="url(#terminal-2458770628-line-36)">agent&#160;to&#160;create&#160;one.</text><text class="terminal-2458770628-r1" x="1708" y="898.4" textLength="12.2" clip-path="url(#terminal-2458770628-line-36)">
</text><text class="terminal-2458770628-r1" x="1708" y="922.8" textLength="12.2" clip-path="url(#terminal-2458770628-line-37)">
</text><text class="terminal-2458770628-r11" x="183" y="947.2" textLength="36.6" clip-path="url(#terminal-2458770628-line-38)">↑/↓</text><text class="terminal-2458770628-r3" x="219.6" y="947.2" textLength="195.2" clip-path="url(#terminal-2458770628-line-38)">&#160;navigate&#160;&#160;&#160;·&#160;&#160;&#160;</text><text class="terminal-2458770628-r11" x="414.8" y="947.2" textLength="134.2" clip-path="url(#terminal-2458770628-line-38)">enter/click</text><text class="terminal-2458770628-r3" x="549" y="947.2" textLength="451.4" clip-path="url(#terminal-2458770628-line-38)">&#160;trust/untrust&#160;a&#160;project&#160;skill&#160;&#160;&#160;·&#160;&#160;&#160;</text><text class="terminal-2458770628-r11" x="1000.4" y="947.2" textLength="36.6" clip-path="url(#terminal-2458770628-line-38)">esc</text><text class="terminal-2458770628-r3" x="1037" y="947.2" textLength="170.8" clip-path="url(#terminal-2458770628-line-38)">&#160;apply&#160;&amp;&#160;close</text><text class="terminal-2458770628-r1" x="1708" y="947.2" textLength="12.2" clip-path="url(#terminal-2458770628-line-38)">
</text>
    </g>
    </g>
</svg>
